<svg t="1610118265712" class="icon" viewBox="0 0 1024 1024" version="1.1" xmlns="http://www.w3.org/2000/svg" p-id="1879" width="200" height="200"><path d="M361.552 912h-0.016c-64.28-0.016-124.888-25.112-170.672-70.688-93.528-93.952-93.92-245.624-0.952-338.176 44.352-44.544 103.736-69.128 167.144-69.128 16.944 0 33.84 1.8 50.392 5.336l326.928-326.92L852.32 112h0.52c21.952 0.152 49.624 4.536 50.704 44.608v0.648l-0.08 147.776-88 11.448-11.128 85.448-81.744 10.768 0.696 83.44-81.56 80.552-48.744 48.736c16.576 78.472-7.144 160.64-63.584 217.328C484.584 887.44 425 912 361.552 912z m-4.496-430.68c-50.728 0-98.208 19.632-133.688 55.272-74.56 74.216-74.104 195.872 0.952 271.264 36.784 36.624 85.544 56.832 137.224 56.832h0.008c50.84 0 98.56-19.672 134.384-55.384 47.72-47.936 66.184-118.84 48.128-185l-3.608-13.248 67.928-67.92 67.464-66.616-0.872-105.272 87.168-11.48 11.128-85.504 82.936-10.792 0.56-101.648a40.512 40.512 0 0 0-0.144-2.4 36.296 36.296 0 0 0-1.8-0.064l-100.12-0.4L421.76 491.928l-13.272-3.656a194.048 194.048 0 0 0-51.432-6.952z" p-id="1880"></path><path d="M344.256 673.08a68.16 68.16 0 0 0-48.064-19.776c-17.904 0-34.64 6.944-46.984 19.424a66.312 66.312 0 0 0-19.704 47.544 66.616 66.616 0 0 0 19.968 47.568 66.64 66.64 0 0 0 47.872 20.048 67.248 67.248 0 0 0 47.568-19.616c25.632-26.072 25.44-68.672-0.656-95.192z m-27.184 67.36a28.048 28.048 0 0 1-19.728 8.08 27.72 27.72 0 0 1-20.024-8.504 27.784 27.784 0 0 1-8.44-19.832 27.28 27.28 0 0 1 8.216-19.624 26.6 26.6 0 0 1 19.096-7.848 28.88 28.88 0 0 1 20.224 8.232c10.888 11.048 11.08 28.888 0.656 39.496z" p-id="1881"></path></svg>