<svg t="1604552151739" class="icon" viewBox="0 0 1483 1024" version="1.1" xmlns="http://www.w3.org/2000/svg" p-id="1896" width="200" height="200"><path d="M1211.62718 350.579467C1197.405104 154.954128 1028.024862 0 821.865212 0 658.303781 0 514.193796 96.705584 456.708497 242.727463 452.695786 242.583882 448.66796 242.515869 444.617465 242.515869 258.884103 242.515869 107.783991 393.615981 107.783991 579.349343 107.783991 584.994345 108.962868 600.093021 110.224869 613.3327 44.396757 651.721725 0 722.40892 0 803.335707 0 927.079861 104.534528 1027.435423 229.321531 1023.868569 230.046994 1023.936582 230.780011 1023.959252 231.520587 1023.959252L708.859407 1023.959252C710.529481 1023.959252 712.176886 1023.800556 713.778948 1023.498283 784.095852 1018.601415 843.122758 975.85206 871.340205 916.137477L1213.879134 915.78986C1364.253785 908.051599 1482.050661 783.937159 1482.050661 633.237562 1482.050661 481.411986 1361.865805 357.13885 1211.62718 350.579467L1211.62718 350.579467 1211.62718 350.579467ZM707.423599 969.897226C706.751034 969.927454 706.093585 969.987909 705.451248 970.063477L234.717154 970.063477C233.319128 969.919896 231.898431 969.897226 230.455065 969.904784 227.983961 970.010581 225.497743 970.063477 222.996411 970.063477 129.751884 970.063477 53.895775 895.265334 53.895775 803.335707 53.895775 711.406082 129.744328 636.607936 222.996411 636.607936 228.626298 636.607936 234.203284 636.88754 239.704705 637.408966 252.218922 638.648297 263.879212 631.038506 267.861695 619.136394 294.673557 538.927513 372.570029 485.031738 461.673378 485.031738 573.7119 485.031738 664.863165 571.157669 664.863165 677.248916 664.863165 684.632001 667.885923 691.6977 673.243763 696.791047 678.609158 701.884394 685.863777 704.703114 693.186409 704.159019 695.551716 704.038108 697.939695 703.977653 700.327672 703.977653 774.770643 703.977653 835.339157 763.662008 835.339157 837.024343 835.339157 907.870234 779.153644 966.239689 707.423599 969.897226L707.423599 969.897226 707.423599 969.897226ZM1212.473552 861.939425 887.323035 862.234146C888.449014 853.966904 889.234932 845.586306 889.234932 837.016787 889.234932 739.600856 813.537516 659.354189 717.308017 650.822454 703.599809 527.516602 594.183527 431.135964 461.673378 431.135964 356.594755 431.135964 263.667618 491.251064 224.152615 582.712162L222.996411 582.712162C201.973128 582.712162 181.69798 585.802932 162.405227 591.206112 161.951814 585.183266 161.69488 580.739814 161.687321 579.341787 161.687321 423.329693 288.612929 296.404085 444.625023 296.404085 454.033355 296.404085 463.351008 296.865057 472.517521 297.756772 484.948614 299.071672 496.782711 291.378751 500.742524 279.393518 545.290417 144.518058 674.339513 53.888216 821.872771 53.888216 1007.606132 53.888216 1158.706244 198.95037 1158.706244 377.247748 1158.706244 391.855227 1170.336305 403.802676 1184.943782 404.180521 1188.208362 404.271203 1191.49561 404.233419 1194.835759 404.218305L1199.128074 404.188079C1325.426459 404.188079 1428.170001 506.931621 1428.170001 633.230003 1428.162445 755.228515 1332.824659 855.704988 1212.473552 861.939425L1212.473552 861.939425 1212.473552 861.939425Z" fill="#1296db" p-id="1897"></path></svg>