<svg t="1610897901243" class="icon" viewBox="0 0 1024 1024" version="1.1" xmlns="http://www.w3.org/2000/svg" p-id="8394" width="200" height="200"><path d="M682.666667 0a128 128 0 0 1 127.786666 120.490667L810.666667 128v133.333333a42.666667 42.666667 0 0 1-85.034667 4.992L725.333333 261.333333V128a42.666667 42.666667 0 0 0-37.674666-42.368L682.666667 85.333333H128a42.666667 42.666667 0 0 0-42.368 37.674667L85.333333 128v768a42.666667 42.666667 0 0 0 37.674667 42.368L128 938.666667h554.666667a42.666667 42.666667 0 0 0 42.368-37.674667L725.333333 896v-125.354667a42.666667 42.666667 0 0 1 85.034667-4.992l0.298667 4.992V896a128 128 0 0 1-120.490667 127.786667L682.666667 1024H128a128 128 0 0 1-127.786667-120.490667L0 896V128A128 128 0 0 1 120.490667 0.213333L128 0h554.666667z m170.666666 387.413333a42.666667 42.666667 0 0 1 26.666667 9.386667l102.357333 81.92a42.666667 42.666667 0 0 1 0 66.56l-102.4 81.92A42.666667 42.666667 0 0 1 810.666667 593.92V554.666667h-384a42.666667 42.666667 0 0 1 0-85.333334h384v-39.253333a42.666667 42.666667 0 0 1 42.666666-42.666667z" fill="#008df0" p-id="8395"></path></svg>