<svg t="1604215054955" class="icon" viewBox="0 0 1024 1024" version="1.1" xmlns="http://www.w3.org/2000/svg" p-id="2249" width="200" height="200"><path d="M503.04 408.32c17.92 0 30.72-12.8 30.72-30.72 0-17.92-11.52-30.72-30.72-30.72-17.92 0-37.12 11.52-37.12 30.72C465.92 395.52 483.84 408.32 503.04 408.32z" fill="#3BB430" p-id="2250"></path><path d="M582.4 524.8c-11.52 0-24.32 12.8-24.32 24.32 0 12.8 12.8 24.32 24.32 24.32 19.2 0 30.72-11.52 30.72-24.32C613.12 537.6 600.32 524.8 582.4 524.8z" fill="#3BB430" p-id="2251"></path><path d="M512 0C229.12 0 0 229.12 0 512c0 282.88 229.12 512 512 512s512-229.12 512-512C1024 229.12 794.88 0 512 0zM410.88 659.2c-30.72 0-55.04-6.4-85.76-12.8l-85.76 42.24 24.32-72.96c-61.44-42.24-97.28-98.56-97.28-165.12C166.4 335.36 276.48 243.2 410.88 243.2c120.32 0 225.28 72.96 247.04 171.52-7.68-1.28-15.36-1.28-23.04-1.28-116.48 0-207.36 87.04-207.36 193.28 0 17.92 2.56 34.56 7.68 51.2C426.24 659.2 418.56 659.2 410.88 659.2zM771.84 744.96l17.92 61.44-66.56-37.12c-24.32 6.4-48.64 12.8-72.96 12.8-116.48 0-208.64-79.36-208.64-177.92 0-97.28 92.16-177.92 208.64-177.92 110.08 0 207.36 79.36 207.36 177.92C857.6 659.2 820.48 707.84 771.84 744.96z" fill="#3BB430" p-id="2252"></path><path d="M716.8 524.8c-11.52 0-24.32 12.8-24.32 24.32 0 12.8 12.8 24.32 24.32 24.32 17.92 0 30.72-11.52 30.72-24.32C747.52 537.6 734.72 524.8 716.8 524.8z" fill="#3BB430" p-id="2253"></path><path d="M331.52 346.88c-17.92 0-37.12 11.52-37.12 30.72 0 17.92 17.92 30.72 37.12 30.72 17.92 0 30.72-12.8 30.72-30.72C362.24 359.68 349.44 346.88 331.52 346.88z" fill="#3BB430" p-id="2254"></path></svg>